<svg width="141.000000" height="57.126465" viewBox="0 0 141 57.1265" fill="none" xmlns="http://www.w3.org/2000/svg" xmlns:xlink="http://www.w3.org/1999/xlink">
	<desc>
			Created with Pixso.
	</desc>
	<defs>
		<clipPath id="clip0_215">
			<rect id="christmas-dinner 1" rx="0.000000" width="43.000000" height="43.000000" transform="translate(0.500000 13.626465)" fill="white" fill-opacity="0"/>
		</clipPath>
		<clipPath id="clip0_214">
			<rect id="sandwich 1" rx="0.000000" width="43.000000" height="43.000000" transform="translate(0.500000 13.626465)" fill="white" fill-opacity="0"/>
		</clipPath>
		<clipPath id="clip0_228">
			<rect id="dish 1" rx="0.000000" width="43.000000" height="42.489380" transform="translate(0.500000 0.500000)" fill="white" fill-opacity="0"/>
		</clipPath>
	</defs>
	<rect id="sandwich 1" rx="0.000000" width="43.000000" height="43.000000" transform="translate(0.500000 13.626465)" fill="#FFFFFF" fill-opacity="0"/>
	<g clip-path="url(#clip0_214)"/>
	<path id="Set Menu" d="M56.32 41.78Q57.5 42.32 59.24 42.32Q60.86 42.32 62.04 41.85Q63.19 41.4 63.84 40.56Q63.87 40.53 63.89 40.49Q64.01 40.33 64.11 40.15Q64.55 39.37 64.55 38.34Q64.55 37.2 64.06 36.47Q63.58 35.74 62.56 35.25Q61.54 34.76 59.93 34.32Q58.62 33.94 57.79 33.6Q56.97 33.26 56.59 32.81Q56.51 32.71 56.45 32.61Q56.21 32.22 56.21 31.68Q56.21 31.03 56.52 30.6Q56.71 30.32 57.02 30.12Q57.83 29.62 59.13 29.62Q60.42 29.62 61.21 30.18Q61.81 30.6 62.03 31.16Q62.1 31.35 62.14 31.56Q62.21 31.78 62.37 31.86Q62.52 31.94 62.65 31.94L63.71 31.94Q63.91 31.94 64.01 31.84Q64.02 31.83 64.04 31.81Q64.12 31.7 64.13 31.58Q64.13 31.56 64.13 31.54Q64.11 30.94 63.79 30.31Q63.47 29.68 62.85 29.13Q62.23 28.58 61.3 28.25Q60.37 27.92 59.13 27.92Q57.59 27.92 56.5 28.43Q55.4 28.92 54.82 29.77Q54.6 30.08 54.47 30.42Q54.24 31.02 54.24 31.7Q54.24 32.84 54.7 33.58Q55.17 34.32 56.13 34.82Q57.1 35.32 58.56 35.74Q59.95 36.14 60.83 36.48Q61.72 36.82 62.15 37.25Q62.26 37.37 62.35 37.5Q62.58 37.87 62.58 38.38Q62.58 38.9 62.37 39.31Q62.16 39.71 61.76 40.01Q60.95 40.62 59.24 40.62Q58.12 40.62 57.4 40.31Q56.7 40 56.32 39.53Q55.93 39.06 55.82 38.58Q55.8 38.51 55.76 38.44Q55.72 38.37 55.65 38.3Q55.65 38.3 55.65 38.3Q55.53 38.18 55.29 38.18L54.27 38.18Q54.19 38.18 54.12 38.21Q54.03 38.24 53.96 38.31Q53.88 38.4 53.85 38.5Q53.83 38.55 53.83 38.6Q53.84 38.77 53.87 38.94Q53.99 39.7 54.5 40.39Q55.13 41.24 56.32 41.78ZM80.29 41.69Q80.99 42.12 82.12 42.12L83.49 42.12Q83.63 42.12 83.73 42.06Q83.78 42.03 83.82 41.99Q83.87 41.94 83.9 41.88Q83.95 41.79 83.95 41.66L83.95 40.94Q83.95 40.81 83.9 40.71Q83.87 40.66 83.82 40.61Q83.78 40.57 83.72 40.54Q83.62 40.48 83.49 40.48L82.27 40.48Q81.65 40.48 81.31 40.17Q81.21 40.07 81.13 39.94Q80.81 39.4 80.81 38.46L80.81 33.32L83.29 33.32Q83.48 33.32 83.59 33.23Q83.61 33.22 83.63 33.2Q83.67 33.16 83.69 33.11Q83.75 33 83.75 32.86L83.75 32.18Q83.75 32.04 83.69 31.93Q83.66 31.89 83.63 31.85Q83.61 31.83 83.58 31.81Q83.47 31.72 83.29 31.72L80.81 31.72L80.81 28.38Q80.81 28.25 80.76 28.15Q80.73 28.1 80.68 28.05Q80.64 28.01 80.58 27.98Q80.48 27.92 80.35 27.92L79.42 27.92Q79.29 27.92 79.19 27.97Q79.13 28 79.08 28.05Q79.04 28.1 79.01 28.15Q78.95 28.25 78.95 28.38L78.95 31.72L77.4 31.72Q77.27 31.72 77.17 31.77Q77.11 31.8 77.06 31.85Q77.02 31.89 77 31.94Q76.94 32.04 76.94 32.18L76.94 32.86Q76.94 33 76.99 33.1Q77.02 33.15 77.06 33.2Q77.11 33.24 77.16 33.27Q77.26 33.32 77.4 33.32L78.95 33.32L78.95 38.6Q78.95 39.68 79.27 40.47Q79.47 40.95 79.8 41.3Q80.02 41.52 80.29 41.69ZM91.26 42.07Q91.37 42.12 91.5 42.12L92.47 42.12Q92.61 42.12 92.71 42.06Q92.76 42.03 92.8 41.99Q92.85 41.94 92.88 41.88Q92.93 41.79 92.93 41.66L92.93 31.82L96.3 38.34Q96.39 38.54 96.53 38.65Q96.67 38.76 96.94 38.76L97.56 38.76Q97.8 38.76 97.95 38.65Q97.98 38.63 98.01 38.61Q98.13 38.5 98.2 38.34L101.54 31.82L101.54 41.66Q101.54 41.79 101.59 41.9Q101.62 41.95 101.66 41.99Q101.71 42.04 101.76 42.07Q101.86 42.12 102 42.12L102.98 42.12Q103.16 42.12 103.28 42.04Q103.3 42.02 103.32 41.99Q103.37 41.94 103.4 41.88Q103.46 41.79 103.46 41.66L103.46 28.6Q103.46 28.43 103.37 28.31Q103.35 28.28 103.32 28.25Q103.3 28.23 103.26 28.2Q103.15 28.12 102.98 28.12L102 28.12Q101.76 28.12 101.65 28.24Q101.65 28.24 101.64 28.24Q101.54 28.36 101.5 28.44L97.23 36.52L93.02 28.44Q92.98 28.36 92.85 28.24L92.85 28.24Q92.74 28.12 92.49 28.12L91.5 28.12Q91.37 28.12 91.28 28.17Q91.22 28.2 91.17 28.25Q91.14 28.28 91.11 28.31Q91.03 28.43 91.03 28.6L91.03 41.66Q91.03 41.79 91.08 41.88Q91.12 41.94 91.17 41.99Q91.21 42.04 91.26 42.07ZM68.41 41.59Q69.49 42.32 71.07 42.32Q72.1 42.32 72.91 42.05Q73.72 41.78 74.26 41.36Q74.81 40.94 75.11 40.51Q75.42 40.08 75.44 39.78Q75.45 39.65 75.39 39.55Q75.36 39.51 75.32 39.48Q75.28 39.43 75.22 39.41Q75.13 39.36 75.02 39.36L74.03 39.36Q73.81 39.36 73.71 39.41Q73.61 39.46 73.43 39.7Q73.34 39.86 73.03 40.13Q72.73 40.4 72.25 40.62Q71.77 40.84 71.06 40.84Q70.46 40.84 69.97 40.61Q69.79 40.52 69.62 40.4Q69.4 40.24 69.21 40.04Q68.89 39.7 68.69 39.26Q68.65 39.16 68.61 39.07Q68.37 38.43 68.34 37.72L68.34 37.54L75.25 37.54Q75.41 37.54 75.52 37.47Q75.55 37.45 75.58 37.42Q75.61 37.4 75.63 37.37Q75.71 37.26 75.71 37.08L75.71 36.74Q75.71 35.16 75.17 33.98Q74.8 33.16 74.18 32.59Q73.91 32.35 73.6 32.16Q72.57 31.52 71.06 31.52Q69.69 31.52 68.68 32.1Q68.34 32.3 68.04 32.56Q67.48 33.05 67.1 33.75Q66.51 34.82 66.44 36.24Q66.42 36.5 66.42 36.91Q66.42 37.32 66.44 37.58Q66.54 39.61 67.59 40.85Q67.68 40.95 67.77 41.05Q68.07 41.36 68.41 41.59ZM108.15 41.59Q109.23 42.32 110.82 42.32Q111.84 42.32 112.65 42.05Q113.46 41.78 114 41.36Q114.56 40.94 114.85 40.51Q115.16 40.08 115.18 39.78Q115.19 39.65 115.13 39.55Q115.1 39.51 115.06 39.48Q115.02 39.43 114.96 39.41Q114.87 39.36 114.76 39.36L113.77 39.36Q113.55 39.36 113.45 39.41Q113.35 39.46 113.17 39.7Q113.08 39.86 112.77 40.13Q112.48 40.4 111.99 40.62Q111.51 40.84 110.8 40.84Q110.2 40.84 109.72 40.61Q109.53 40.52 109.36 40.4Q109.14 40.24 108.95 40.04Q108.63 39.7 108.43 39.26Q108.39 39.16 108.35 39.07Q108.11 38.43 108.08 37.72L108.08 37.54L114.99 37.54Q115.15 37.54 115.26 37.47Q115.29 37.45 115.32 37.42Q115.35 37.4 115.37 37.37Q115.45 37.26 115.45 37.08L115.45 36.74Q115.45 35.16 114.91 33.98Q114.54 33.16 113.92 32.59Q113.65 32.35 113.34 32.16Q112.31 31.52 110.8 31.52Q109.43 31.52 108.42 32.1Q108.08 32.3 107.78 32.56Q107.22 33.05 106.84 33.75Q106.25 34.82 106.18 36.24Q106.16 36.5 106.16 36.91Q106.16 37.32 106.18 37.58Q106.28 39.61 107.33 40.85Q107.42 40.95 107.51 41.05Q107.81 41.36 108.15 41.59ZM118.08 42.07Q118.18 42.12 118.31 42.12L119.31 42.12Q119.45 42.12 119.55 42.06Q119.6 42.03 119.64 41.99Q119.69 41.94 119.72 41.88Q119.77 41.79 119.77 41.66L119.77 36.12Q119.77 34.84 120.4 34.07Q120.46 34 120.53 33.93Q120.76 33.69 121.03 33.52Q121.65 33.14 122.51 33.14Q123.6 33.14 124.25 33.67Q124.39 33.79 124.52 33.93Q125.19 34.72 125.19 36.12L125.19 41.66Q125.19 41.79 125.24 41.88Q125.28 41.94 125.33 41.99Q125.37 42.04 125.42 42.07Q125.53 42.12 125.66 42.12L126.65 42.12Q126.79 42.12 126.89 42.07Q126.94 42.04 126.99 41.99Q127.04 41.94 127.07 41.88Q127.12 41.79 127.12 41.66L127.12 36.02Q127.12 34.68 126.64 33.67Q126.36 33.06 125.92 32.61Q125.62 32.32 125.26 32.09Q124.35 31.52 123.06 31.52Q121.81 31.52 121.02 31.95Q120.45 32.27 120.01 32.72Q119.85 32.88 119.72 33.06L119.72 32.18Q119.72 32.05 119.66 31.95Q119.63 31.9 119.58 31.85Q119.54 31.81 119.48 31.78Q119.39 31.72 119.26 31.72L118.31 31.72Q118.19 31.72 118.09 31.77Q118.03 31.8 117.98 31.85Q117.94 31.89 117.91 31.94Q117.85 32.04 117.85 32.18L117.85 41.66Q117.85 41.79 117.91 41.9Q117.94 41.95 117.98 41.99Q118.03 42.04 118.08 42.07ZM131.68 41.75Q132.58 42.32 133.86 42.32Q135.12 42.32 135.88 41.9Q136.24 41.71 136.55 41.45Q136.91 41.16 137.2 40.78L137.2 41.66Q137.2 41.79 137.25 41.9Q137.28 41.95 137.32 41.99Q137.37 42.04 137.42 42.07Q137.52 42.12 137.66 42.12L138.59 42.12Q138.73 42.12 138.84 42.06Q138.88 42.03 138.92 41.99Q138.95 41.95 138.98 41.91Q139.04 41.8 139.04 41.66L139.04 32.18Q139.04 32.04 138.97 31.93Q138.95 31.89 138.92 31.85Q138.87 31.81 138.83 31.78Q138.73 31.72 138.59 31.72L137.6 31.72Q137.47 31.72 137.37 31.77Q137.32 31.8 137.27 31.85Q137.22 31.9 137.19 31.95Q137.13 32.05 137.13 32.18L137.13 37.72Q137.13 39 136.51 39.77Q136.45 39.84 136.38 39.91Q136.16 40.14 135.91 40.3Q135.27 40.7 134.39 40.7Q133.27 40.7 132.63 40.14Q131.8 39.41 131.8 37.72L131.8 32.18Q131.8 32.05 131.74 31.95Q131.71 31.9 131.66 31.85Q131.62 31.81 131.56 31.78Q131.47 31.72 131.34 31.72L130.34 31.72Q130.21 31.72 130.11 31.77Q130.05 31.8 130 31.85Q129.96 31.89 129.94 31.94Q129.88 32.04 129.88 32.18L129.88 37.82Q129.88 39.14 130.34 40.16Q130.64 40.84 131.14 41.32Q131.39 41.56 131.68 41.75ZM73.81 36.16L68.34 36.16L68.34 36.1Q68.34 35.2 68.65 34.5Q68.87 34.03 69.21 33.69Q69.38 33.53 69.59 33.39Q69.63 33.36 69.67 33.34Q70.26 32.98 71.06 32.98Q71.84 32.98 72.42 33.32Q72.48 33.35 72.53 33.39Q72.76 33.54 72.94 33.72Q73.27 34.05 73.48 34.5Q73.81 35.2 73.81 36.1L73.81 36.16ZM113.55 36.16L108.08 36.16L108.08 36.1Q108.08 35.2 108.39 34.5Q108.61 34.03 108.95 33.69Q109.12 33.53 109.33 33.39Q109.37 33.36 109.41 33.34Q110 32.98 110.8 32.98Q111.58 32.98 112.16 33.32Q112.22 33.35 112.28 33.39Q112.5 33.54 112.68 33.72Q113.01 34.05 113.22 34.5Q113.55 35.2 113.55 36.1L113.55 36.16Z" fill="#363853" fill-opacity="1.000000" fill-rule="evenodd"/>
	<rect id="dish 1" rx="0.000000" width="43.000000" height="42.489380" transform="translate(0.500000 0.500000)" fill="#FFFFFF" fill-opacity="0"/>
	<g clip-path="url(#clip0_228)">
		<path id="Vector" d="M31.15 14.65L30.68 13.12C30.08 11.38 28.17 10.45 26.41 11.04C25.42 11.37 24.64 12.14 24.31 13.12L23.84 14.65C23.44 15.94 23.36 17.31 23.59 18.64C23.81 19.76 24.53 20.72 25.55 21.25L25.02 32.9C24.95 33.55 25.16 34.2 25.61 34.69C26.56 35.72 28.18 35.79 29.23 34.85C29.28 34.8 29.34 34.74 29.39 34.69C29.82 34.22 30.04 33.59 29.98 32.95L29.45 21.25C30.46 20.72 31.18 19.76 31.4 18.64C31.63 17.31 31.55 15.94 31.15 14.65ZM29.95 18.39C29.79 19.19 29.21 19.85 28.43 20.12C28.13 20.23 27.94 20.52 27.95 20.83L28.51 33.07C28.54 33.31 28.46 33.54 28.29 33.72C27.85 34.15 27.14 34.15 26.7 33.72C26.52 33.53 26.45 33.27 26.48 33.02L27.04 20.83C27.05 20.52 26.86 20.23 26.56 20.12C25.78 19.85 25.2 19.19 25.04 18.39C24.84 17.28 24.91 16.15 25.24 15.08L25.71 13.54C26.08 12.57 27.17 12.07 28.15 12.43C28.68 12.62 29.09 13.03 29.28 13.54L29.75 15.08C30.08 16.15 30.15 17.28 29.95 18.39Z" fill="#363853" fill-opacity="1.000000" fill-rule="nonzero"/>
		<path id="Vector" d="M19.79 10.87C19.39 10.87 19.06 11.19 19.06 11.59L19.06 17.82L17.08 19.78C16.93 19.92 16.85 20.12 16.86 20.33L17.5 33.01C17.52 33.28 17.42 33.55 17.23 33.75C16.82 34.15 16.17 34.15 15.77 33.76C15.76 33.75 15.76 33.75 15.76 33.75C15.57 33.55 15.47 33.28 15.48 33.01L16.13 20.33C16.14 20.12 16.06 19.92 15.91 19.78L13.93 17.82L13.93 11.59C13.93 11.19 13.6 10.87 13.2 10.87C12.79 10.87 12.46 11.19 12.46 11.59L12.46 18.12C12.46 18.31 12.54 18.49 12.68 18.63L14.65 20.58L14.02 32.94C13.95 34.29 15.01 35.44 16.37 35.5C17.74 35.57 18.9 34.53 18.97 33.18C18.97 33.1 18.97 33.02 18.97 32.94L18.34 20.58L20.31 18.63C20.45 18.49 20.53 18.31 20.53 18.12L20.53 11.59C20.53 11.19 20.2 10.87 19.79 10.87Z" fill="#363853" fill-opacity="1.000000" fill-rule="nonzero"/>
		<path id="Vector" d="M15.4 10.87C14.99 10.87 14.66 11.19 14.66 11.59L14.66 17.39C14.66 17.79 14.99 18.12 15.4 18.12C15.8 18.12 16.13 17.79 16.13 17.39L16.13 11.59C16.13 11.19 15.8 10.87 15.4 10.87Z" fill="#363853" fill-opacity="1.000000" fill-rule="nonzero"/>
		<path id="Vector" d="M17.6 10.87C17.19 10.87 16.86 11.19 16.86 11.59L16.86 17.39C16.86 17.79 17.19 18.12 17.6 18.12C18 18.12 18.33 17.79 18.33 17.39L18.33 11.59C18.33 11.19 18 10.87 17.6 10.87Z" fill="#363853" fill-opacity="1.000000" fill-rule="nonzero"/>
		<path id="Vector" d="M22 0C9.84 0 0 9.73 0 21.74C0 33.75 9.84 43.48 22 43.48C34.15 43.48 44 33.75 44 21.74C43.98 9.74 34.14 0.01 22 0ZM22 42.03C10.65 42.03 1.46 32.95 1.46 21.74C1.46 10.53 10.65 1.44 22 1.44C33.34 1.44 42.53 10.53 42.53 21.74C42.52 32.94 33.33 42.02 22 42.03Z" fill="#363853" fill-opacity="1.000000" fill-rule="nonzero"/>
		<path id="Vector" d="M24.38 35.35C24.34 34.95 23.98 34.66 23.57 34.69C23.56 34.7 23.56 34.7 23.55 34.7L23.55 34.7C22.52 34.82 21.47 34.82 20.44 34.7C20.04 34.65 19.67 34.94 19.63 35.33C19.58 35.73 19.87 36.09 20.27 36.14C21.42 36.27 22.57 36.27 23.72 36.14C24.12 36.1 24.41 35.74 24.38 35.35Z" fill="#363853" fill-opacity="1.000000" fill-rule="nonzero"/>
		<path id="Vector" d="M33.22 12.4C32.95 12.09 32.49 12.05 32.18 12.31C32.18 12.31 32.18 12.31 32.18 12.31C31.87 12.57 31.83 13.03 32.09 13.33C36.51 18.52 36.17 26.19 31.31 30.98C31.03 31.26 31.03 31.72 31.31 32.01C31.6 32.29 32.06 32.29 32.35 32.01C37.75 26.69 38.13 18.16 33.22 12.4Z" fill="#363853" fill-opacity="1.000000" fill-rule="nonzero"/>
		<path id="Vector" d="M17.08 9.58C17.08 9.58 17.08 9.58 17.08 9.58C17.08 9.58 17.08 9.58 17.08 9.58L17.08 9.58Z" fill="#363853" fill-opacity="1.000000" fill-rule="nonzero"/>
		<path id="Vector" d="M25.45 7.65C22.59 6.97 19.58 7.15 16.82 8.17C16.44 8.31 16.25 8.73 16.39 9.11C16.5 9.39 16.77 9.58 17.08 9.58C17.17 9.58 17.25 9.56 17.34 9.53C19.82 8.61 22.53 8.45 25.11 9.06C25.5 9.15 25.9 8.91 25.99 8.52C26.09 8.13 25.85 7.74 25.45 7.65Z" fill="#363853" fill-opacity="1.000000" fill-rule="nonzero"/>
		<path id="Vector" d="M12.64 30.94C10.17 28.51 8.79 25.19 8.79 21.74C8.79 18.98 9.67 16.29 11.32 14.07C11.56 13.75 11.5 13.29 11.17 13.05C10.85 12.81 10.39 12.87 10.15 13.19C10.14 13.2 10.14 13.21 10.13 13.21C5.89 18.97 6.52 26.92 11.61 31.97C11.89 32.25 12.36 32.25 12.64 31.97C12.93 31.69 12.93 31.23 12.64 30.94Z" fill="#363853" fill-opacity="1.000000" fill-rule="nonzero"/>
	</g>
</svg>
