<svg width="143" height="44" viewBox="0 0 143 44" fill="none" xmlns="http://www.w3.org/2000/svg">
<path d="M58.08 29.2C57.1467 29.2 56.36 29.0533 55.72 28.76C55.0933 28.4533 54.62 28.1067 54.3 27.72C53.9933 27.3333 53.84 27.0133 53.84 26.76C53.84 26.6267 53.8867 26.5267 53.98 26.46C54.0867 26.38 54.1933 26.34 54.3 26.34H55.2C55.3333 26.34 55.4533 26.4067 55.56 26.54C55.88 26.9133 56.2267 27.2067 56.6 27.42C56.9733 27.6333 57.4733 27.74 58.1 27.74C58.7933 27.74 59.3533 27.6067 59.78 27.34C60.22 27.06 60.44 26.68 60.44 26.2C60.44 25.88 60.3467 25.62 60.16 25.42C59.9867 25.2067 59.68 25.0267 59.24 24.88C58.8133 24.72 58.1733 24.5467 57.32 24.36C56.16 24.1067 55.3333 23.74 54.84 23.26C54.36 22.78 54.12 22.16 54.12 21.4C54.12 20.8933 54.2667 20.4133 54.56 19.96C54.8667 19.4933 55.3067 19.12 55.88 18.84C56.4667 18.5467 57.1667 18.4 57.98 18.4C58.8333 18.4 59.56 18.54 60.16 18.82C60.76 19.1 61.2067 19.4333 61.5 19.82C61.8067 20.1933 61.96 20.5067 61.96 20.76C61.96 20.88 61.9133 20.98 61.82 21.06C61.74 21.14 61.64 21.18 61.52 21.18H60.68C60.52 21.18 60.3867 21.1133 60.28 20.98C60.0667 20.7267 59.88 20.5333 59.72 20.4C59.5733 20.2533 59.3533 20.1267 59.06 20.02C58.78 19.9133 58.42 19.86 57.98 19.86C57.34 19.86 56.8467 20 56.5 20.28C56.1533 20.5467 55.98 20.9 55.98 21.34C55.98 21.62 56.0533 21.86 56.2 22.06C56.3467 22.2467 56.6267 22.42 57.04 22.58C57.4667 22.74 58.08 22.9067 58.88 23.08C60.1467 23.3467 61.04 23.7333 61.56 24.24C62.0933 24.7333 62.36 25.3667 62.36 26.14C62.36 26.7133 62.1933 27.2333 61.86 27.7C61.5267 28.1667 61.0333 28.5333 60.38 28.8C59.74 29.0667 58.9733 29.2 58.08 29.2ZM67.5753 29.2C66.922 29.2 66.3153 29.0667 65.7553 28.8C65.1953 28.5333 64.7486 28.1733 64.4153 27.72C64.0953 27.2533 63.9353 26.74 63.9353 26.18C63.9353 25.3 64.2953 24.58 65.0153 24.02C65.7486 23.4467 66.7353 23.0733 67.9753 22.9L70.9553 22.48V21.9C70.9553 20.54 70.1753 19.86 68.6153 19.86C68.0286 19.86 67.5486 19.9867 67.1753 20.24C66.802 20.48 66.522 20.7667 66.3353 21.1C66.2953 21.22 66.242 21.3067 66.1753 21.36C66.122 21.4133 66.042 21.44 65.9353 21.44H65.0753C64.9553 21.44 64.8486 21.4 64.7553 21.32C64.6753 21.2267 64.6353 21.12 64.6353 21C64.6486 20.68 64.7953 20.32 65.0753 19.92C65.3686 19.5067 65.8153 19.1533 66.4153 18.86C67.0153 18.5533 67.7553 18.4 68.6353 18.4C70.1286 18.4 71.202 18.7533 71.8553 19.46C72.5086 20.1533 72.8353 21.02 72.8353 22.06V28.54C72.8353 28.6733 72.7886 28.7867 72.6953 28.88C72.6153 28.96 72.5086 29 72.3753 29H71.4553C71.322 29 71.2086 28.96 71.1153 28.88C71.0353 28.7867 70.9953 28.6733 70.9953 28.54V27.68C70.702 28.1067 70.2753 28.4667 69.7153 28.76C69.1553 29.0533 68.442 29.2 67.5753 29.2ZM67.9953 27.7C68.862 27.7 69.5686 27.42 70.1153 26.86C70.6753 26.2867 70.9553 25.4667 70.9553 24.4V23.84L68.6353 24.18C67.6886 24.3133 66.9753 24.54 66.4953 24.86C66.0153 25.1667 65.7753 25.56 65.7753 26.04C65.7753 26.5733 65.9953 26.9867 66.4353 27.28C66.8753 27.56 67.3953 27.7 67.9953 27.7ZM76.1705 29C76.0371 29 75.9238 28.96 75.8305 28.88C75.7505 28.7867 75.7105 28.6733 75.7105 28.54V19.06C75.7105 18.9267 75.7505 18.82 75.8305 18.74C75.9238 18.6467 76.0371 18.6 76.1705 18.6H77.1105C77.2438 18.6 77.3505 18.6467 77.4305 18.74C77.5238 18.82 77.5705 18.9267 77.5705 19.06V19.94C77.9571 19.4467 78.4105 19.0667 78.9305 18.8C79.4638 18.5333 80.1238 18.4 80.9105 18.4C82.1905 18.4 83.1838 18.8133 83.8905 19.64C84.6105 20.4533 84.9705 21.54 84.9705 22.9V28.54C84.9705 28.6733 84.9238 28.7867 84.8305 28.88C84.7505 28.96 84.6438 29 84.5105 29H83.5105C83.3771 29 83.2638 28.96 83.1705 28.88C83.0905 28.7867 83.0505 28.6733 83.0505 28.54V23C83.0505 22.0533 82.8171 21.32 82.3505 20.8C81.8971 20.28 81.2371 20.02 80.3705 20.02C79.5305 20.02 78.8638 20.2867 78.3705 20.82C77.8771 21.34 77.6305 22.0667 77.6305 23V28.54C77.6305 28.6733 77.5838 28.7867 77.4905 28.88C77.4105 28.96 77.3038 29 77.1705 29H76.1705ZM91.6394 29.2C90.2527 29.2 89.206 28.7467 88.4994 27.84C87.7927 26.9333 87.4194 25.7867 87.3794 24.4L87.3594 23.8L87.3794 23.2C87.4194 21.8267 87.7927 20.6867 88.4994 19.78C89.206 18.86 90.2527 18.4 91.6394 18.4C93.0127 18.4 94.0927 18.8867 94.8794 19.86V15.26C94.8794 15.1267 94.9194 15.02 94.9994 14.94C95.0927 14.8467 95.206 14.8 95.3394 14.8H96.2994C96.4327 14.8 96.5394 14.8467 96.6194 14.94C96.7127 15.02 96.7594 15.1267 96.7594 15.26V28.54C96.7594 28.6733 96.7127 28.7867 96.6194 28.88C96.5394 28.96 96.4327 29 96.2994 29H95.3994C95.266 29 95.1527 28.96 95.0594 28.88C94.9794 28.7867 94.9394 28.6733 94.9394 28.54V27.7C94.166 28.7 93.066 29.2 91.6394 29.2ZM92.0594 27.58C92.9794 27.58 93.666 27.28 94.1194 26.68C94.586 26.0667 94.8394 25.34 94.8794 24.5C94.8927 24.3533 94.8994 24.1 94.8994 23.74C94.8994 23.3667 94.8927 23.1067 94.8794 22.96C94.8527 22.1733 94.5994 21.4867 94.1194 20.9C93.6394 20.3133 92.9527 20.02 92.0594 20.02C91.1127 20.02 90.4194 20.3133 89.9794 20.9C89.5527 21.4867 89.3194 22.26 89.2794 23.22L89.2594 23.8C89.2594 26.32 90.1927 27.58 92.0594 27.58ZM102.494 29C102.321 29 102.187 28.96 102.094 28.88C102.001 28.8 101.921 28.6733 101.854 28.5L99.0139 19.22L98.9739 19.02C98.9739 18.9 99.0139 18.8 99.0939 18.72C99.1872 18.64 99.2872 18.6 99.3939 18.6H100.274C100.407 18.6 100.514 18.64 100.594 18.72C100.687 18.7867 100.747 18.86 100.774 18.94L102.994 26.48L105.374 19.02C105.401 18.9133 105.461 18.82 105.554 18.74C105.647 18.6467 105.774 18.6 105.934 18.6H106.614C106.774 18.6 106.901 18.6467 106.994 18.74C107.087 18.82 107.147 18.9133 107.174 19.02L109.554 26.48L111.774 18.94C111.787 18.8733 111.834 18.8 111.914 18.72C112.007 18.64 112.121 18.6 112.254 18.6H113.154C113.261 18.6 113.354 18.64 113.434 18.72C113.514 18.8 113.554 18.9 113.554 19.02L113.514 19.22L110.694 28.5C110.627 28.6733 110.547 28.8 110.454 28.88C110.361 28.96 110.221 29 110.034 29H109.254C108.894 29 108.674 28.8333 108.594 28.5L106.274 21.34L103.954 28.5C103.847 28.8333 103.621 29 103.274 29H102.494ZM116.069 16.66C115.936 16.66 115.822 16.62 115.729 16.54C115.649 16.4467 115.609 16.3333 115.609 16.2V15.12C115.609 14.9867 115.649 14.8733 115.729 14.78C115.822 14.6867 115.936 14.64 116.069 14.64H117.329C117.462 14.64 117.576 14.6867 117.669 14.78C117.762 14.8733 117.809 14.9867 117.809 15.12V16.2C117.809 16.3333 117.762 16.4467 117.669 16.54C117.576 16.62 117.462 16.66 117.329 16.66H116.069ZM116.229 29C116.096 29 115.982 28.96 115.889 28.88C115.809 28.7867 115.769 28.6733 115.769 28.54V19.06C115.769 18.9267 115.809 18.82 115.889 18.74C115.982 18.6467 116.096 18.6 116.229 18.6H117.189C117.322 18.6 117.429 18.6467 117.509 18.74C117.602 18.82 117.649 18.9267 117.649 19.06V28.54C117.649 28.6733 117.602 28.7867 117.509 28.88C117.429 28.96 117.322 29 117.189 29H116.229ZM124.813 29.2C123.386 29.2 122.266 28.8 121.453 28C120.653 27.1867 120.226 26.0533 120.173 24.6L120.153 23.8L120.173 23C120.226 21.5467 120.653 20.42 121.453 19.62C122.266 18.8067 123.386 18.4 124.813 18.4C125.773 18.4 126.586 18.5733 127.253 18.92C127.919 19.2667 128.413 19.6933 128.733 20.2C129.066 20.7067 129.246 21.2133 129.273 21.72C129.286 21.8533 129.246 21.96 129.153 22.04C129.059 22.12 128.946 22.16 128.813 22.16H127.853C127.719 22.16 127.619 22.1333 127.553 22.08C127.486 22.0267 127.419 21.92 127.353 21.76C127.126 21.12 126.806 20.6667 126.393 20.4C125.979 20.12 125.459 19.98 124.833 19.98C124.006 19.98 123.346 20.24 122.853 20.76C122.373 21.2667 122.113 22.0467 122.073 23.1L122.053 23.82L122.073 24.5C122.113 25.5667 122.373 26.3533 122.853 26.86C123.333 27.3667 123.993 27.62 124.833 27.62C125.459 27.62 125.979 27.4867 126.393 27.22C126.806 26.94 127.126 26.48 127.353 25.84C127.419 25.68 127.486 25.5733 127.553 25.52C127.619 25.4533 127.719 25.42 127.853 25.42H128.813C128.946 25.42 129.059 25.4667 129.153 25.56C129.246 25.64 129.286 25.7467 129.273 25.88C129.246 26.3733 129.066 26.88 128.733 27.4C128.413 27.9067 127.919 28.3333 127.253 28.68C126.599 29.0267 125.786 29.2 124.813 29.2ZM132.128 29C131.995 29 131.881 28.96 131.788 28.88C131.708 28.7867 131.668 28.6733 131.668 28.54V15.26C131.668 15.1267 131.708 15.02 131.788 14.94C131.881 14.8467 131.995 14.8 132.128 14.8H133.128C133.261 14.8 133.368 14.8467 133.448 14.94C133.541 15.02 133.588 15.1267 133.588 15.26V19.92C133.975 19.4267 134.428 19.0533 134.948 18.8C135.468 18.5333 136.115 18.4 136.888 18.4C138.168 18.4 139.161 18.8133 139.868 19.64C140.588 20.4533 140.948 21.54 140.948 22.9V28.54C140.948 28.6733 140.901 28.7867 140.808 28.88C140.728 28.96 140.621 29 140.488 29H139.488C139.355 29 139.241 28.96 139.148 28.88C139.068 28.7867 139.028 28.6733 139.028 28.54V23C139.028 22.0533 138.795 21.32 138.328 20.8C137.875 20.28 137.215 20.02 136.348 20.02C135.508 20.02 134.835 20.2867 134.328 20.82C133.835 21.34 133.588 22.0667 133.588 23V28.54C133.588 28.6733 133.541 28.7867 133.448 28.88C133.368 28.96 133.261 29 133.128 29H132.128Z" fill="#363853"/>
<g clip-path="url(#clip0_0_260)">
<path d="M41.7999 6.59989H40.3333V5.13319C40.3333 3.91821 39.3482 2.93319 38.1333 2.93319H36.3865L35.3253 0.810968C35.0787 0.312358 34.5697 -0.00234463 34.0134 -0.00011025H33C32.1899 -0.00011025 31.5333 0.656538 31.5333 1.46659V2.93328H23.4666C22.2515 2.93328 21.2666 3.91821 21.2666 5.13328V6.59989H19.8C18.585 6.59989 17.6 7.58491 17.6 8.79989V10.2666C17.6 11.0766 18.2566 11.7333 19.0666 11.7333H19.1444L20.0024 19.31L16.4692 18.4799C16.291 18.2057 16.1025 17.9336 15.8928 17.6666L14.6461 12.3008C14.5691 11.969 14.2739 11.734 13.9333 11.7332H9.71957C7.73149 9.98127 5.38187 9.18927 3.60941 9.71066L2.53287 8.53735C2.12605 8.09323 1.48693 7.94722 0.927647 8.17066C0.36742 8.38653 -0.00159544 8.92553 -4.85612e-05 9.52589V41.8146C0.00158425 43.0208 0.979038 43.9983 2.18526 43.9999H38.1333C38.5061 43.9996 38.8193 43.7198 38.8615 43.3494L42.4541 11.7332H42.5333C43.3434 11.7332 44 11.0765 44 10.2665V8.79989C44 7.58491 43.015 6.59989 41.7999 6.59989ZM33 1.46659H34.0134L34.7467 2.93328H33V1.46659ZM22.7333 5.13319C22.7333 4.72817 23.0616 4.39989 23.4666 4.39989H38.1333C38.5383 4.39989 38.8666 4.72817 38.8666 5.13319V6.59989H22.7333V5.13319ZM20.68 20.9732L20.7262 20.982L21.3187 21.1227L21.7162 25.2844C20.5645 24.469 19.1864 24.0346 17.7753 24.0421C18.0469 22.7482 17.9031 21.4017 17.3646 20.1943L20.68 20.9732ZM22.1129 27.4596L22.1224 27.4677C22.388 27.7134 22.6403 27.9734 22.8777 28.2464C23.7502 29.2199 24.3917 30.3778 24.7543 31.6337C24.8783 32.0711 24.9421 32.5233 24.9443 32.9779L18.095 25.5081C19.6184 25.6787 21.0369 26.3677 22.1129 27.4596ZM14.385 18.1397V18.1382C15.9676 19.9569 16.7046 22.1415 16.3548 23.6096L8.89165 15.4733C10.3972 15.1367 12.6866 16.1941 14.385 18.1397ZM13.3466 13.1999L13.9333 15.6969C13.344 15.237 12.7017 14.8495 12.0201 14.5427C11.7429 14.0738 11.4329 13.6251 11.0924 13.1999H13.3466ZM9.66019 13.7455H9.66311C9.72395 13.8152 9.77388 13.8922 9.83249 13.9655C9.14404 13.9021 8.45087 14.0185 7.82095 14.3036L4.80618 11.016C6.28026 11.0373 8.2038 12.0742 9.66019 13.7455ZM30.737 42.1025C30.6235 42.3636 30.3661 42.5328 30.0813 42.5333H23.4666H2.18526C1.78831 42.5333 1.46656 42.2115 1.46656 41.8146L1.45333 9.53328L16.1721 25.5815V25.5852L24.8166 35.0093L24.8262 35.0203L29.568 40.1917C29.5848 40.2137 29.6024 40.2357 29.6215 40.257L30.6049 41.3291C30.7987 41.5377 30.8506 41.8413 30.737 42.1025ZM26.1976 34.3448C26.3318 33.9069 26.4 33.4513 26.4 32.9933C26.7852 33.3182 27.1442 33.673 27.4736 34.0544C27.8832 34.5225 28.2469 35.0289 28.5596 35.5666C28.9879 36.2867 29.2906 37.0742 29.455 37.8957L26.1976 34.3448ZM37.4784 42.5333H32.1361C32.4108 41.7734 32.2366 40.9238 31.6851 40.3333L30.9466 39.5266C31.0915 38.299 30.8935 37.0552 30.3746 35.9333H38.2286L37.4784 42.5333ZM38.3951 34.4666H29.5951C29.2941 33.9836 28.9568 33.5242 28.586 33.0923C27.8643 32.2546 27.0171 31.534 26.0743 30.956C25.6434 29.5974 24.931 28.3447 23.9836 27.2798C23.7636 27.0305 23.5436 26.798 23.3126 26.5743L22.7333 20.4635C22.7035 20.1509 22.4779 19.892 22.1723 19.8197L21.5226 19.6657L21.3686 18.3332H40.2292L38.3951 34.4666ZM40.3956 16.8666H21.2021L20.6213 11.7333H40.9786L40.3956 16.8666ZM42.5333 10.2666H19.0666V8.79989C19.0666 8.39487 19.3949 8.06658 19.8 8.06658H41.7999C42.205 8.06658 42.5333 8.39487 42.5333 8.79989V10.2666Z" fill="#363853"/>
<path d="M31.1006 32.2667C31.1423 32.2667 31.1834 32.2608 31.2245 32.2594C31.2355 32.2594 31.2465 32.2667 31.2575 32.2667C31.2943 32.2644 31.3308 32.2593 31.3667 32.2513C32.5147 32.1738 33.5724 31.6017 34.2655 30.6834C35.1895 29.3853 35.4536 27.7299 34.9798 26.2087C34.8778 25.8288 34.7847 25.4563 34.6945 25.0962C34.1225 22.8031 33.5762 20.6404 31.2596 20.543C31.2362 20.543 31.2142 20.5386 31.1907 20.5386C31.1672 20.5386 31.1328 20.5334 31.1005 20.5334C28.5089 20.5334 26.3998 23.1654 26.3998 26.4001C26.3998 29.6349 28.5089 32.2667 31.1006 32.2667ZM31.6682 22.11C32.4264 22.4077 32.7601 23.4014 33.2719 25.451C33.3636 25.8177 33.4589 26.202 33.5652 26.5914C33.9163 27.6723 33.7448 28.8549 33.101 29.7916C32.8673 30.0981 32.5682 30.3486 32.2254 30.5249C32.2006 29.2643 31.9524 28.0181 31.4921 26.8443C31.4188 26.6155 31.3454 26.3947 31.2809 26.1843C30.8542 24.7962 31.3542 22.9973 31.6682 22.11ZM30.0922 22.22C29.615 23.6363 29.5416 25.1577 29.8802 26.6134C29.9477 26.8334 30.0225 27.0614 30.1002 27.2983C30.4669 28.4174 30.9069 29.7704 30.7272 30.7662C29.1198 30.5154 27.8665 28.6542 27.8665 26.4C27.8666 24.453 28.8016 22.8 30.0922 22.22Z" fill="#363853"/>
<path d="M3.88139 38.563L3.36293 39.0815C3.17232 39.2657 3.09584 39.5383 3.16296 39.7947C3.23007 40.0511 3.43031 40.2514 3.68666 40.3184C3.9431 40.3855 4.21569 40.309 4.39985 40.1184L4.91831 39.6C5.19624 39.3122 5.19228 38.8548 4.90938 38.572C4.62656 38.2891 4.16911 38.2851 3.88139 38.563Z" fill="#363853"/>
<path d="M10.8929 33.6264C11.1794 33.3399 11.1794 32.8753 10.8929 32.5887C10.6064 32.3021 10.1418 32.3021 9.85518 32.5887L9.33672 33.1071C9.15135 33.2923 9.07891 33.5624 9.14663 33.8155C9.21434 34.0687 9.412 34.2664 9.66509 34.3343C9.91817 34.4022 10.1883 34.3299 10.3736 34.1447L10.8929 33.6264Z" fill="#363853"/>
<path d="M4.39994 31.7482L3.88148 32.2667C3.69087 32.4509 3.61439 32.7234 3.6815 32.9799C3.74862 33.2362 3.94885 33.4365 4.20521 33.5036C4.46164 33.5707 4.73424 33.4942 4.9184 33.3036L5.43686 32.7851C5.71478 32.4974 5.71083 32.04 5.42793 31.7572C5.1451 31.4743 4.68766 31.4703 4.39994 31.7482Z" fill="#363853"/>
<path d="M4.39994 26.6149L3.88148 27.1333C3.69087 27.3175 3.61439 27.5901 3.6815 27.8465C3.74862 28.1029 3.94885 28.3031 4.20521 28.3702C4.46164 28.4373 4.73424 28.3609 4.9184 28.1702L5.43686 27.6518C5.71478 27.3641 5.71083 26.9066 5.42793 26.6238C5.1451 26.341 4.68766 26.337 4.39994 26.6149Z" fill="#363853"/>
<path d="M11 38.563L10.4815 39.0815C10.2909 39.2657 10.2144 39.5383 10.2816 39.7947C10.3487 40.0511 10.5489 40.2514 10.8053 40.3184C11.0617 40.3855 11.3343 40.309 11.5185 40.1184L12.0369 39.6C12.3148 39.3122 12.3109 38.8548 12.028 38.572C11.7452 38.2891 11.2877 38.2851 11 38.563Z" fill="#363853"/>
<path d="M16.3481 38.5631L15.8297 39.0816C15.6391 39.2658 15.5626 39.5384 15.6297 39.7948C15.6968 40.0512 15.897 40.2515 16.1534 40.3185C16.4098 40.3856 16.6824 40.3091 16.8666 40.1185L17.385 39.6001C17.663 39.3123 17.659 38.8549 17.3761 38.5721C17.0932 38.2893 16.6358 38.2852 16.3481 38.5631Z" fill="#363853"/>
</g>
<defs>
<clipPath id="clip0_0_260">
<rect width="44" height="44" fill="white"/>
</clipPath>
</defs>
</svg>
    