<svg width="116.000000" height="44.000000" viewBox="0 0 116 44" fill="none" xmlns="http://www.w3.org/2000/svg" xmlns:xlink="http://www.w3.org/1999/xlink">
	<desc>
			Created with Pixso.
	</desc>
	<defs>
		<clipPath id="clip0_161">
			<rect id="burger 1" rx="0.000000" width="43.000000" height="43.000000" transform="translate(0.500000 0.500000)" fill="white" fill-opacity="0"/>
		</clipPath>
	</defs>
	<path id="Burger" d="M53.9 28.91Q54.01 29 54.2 29L59.84 29Q61.28 29 62.26 28.45Q63.02 28.03 63.49 27.4Q63.63 27.2 63.75 26.98Q63.91 26.68 64.02 26.37Q64.26 25.7 64.26 24.96Q64.26 23.89 63.79 23.09Q63.72 22.98 63.65 22.88Q63.04 22.01 62.25 21.64Q62.63 21.44 63.04 21.07Q63.44 20.69 63.7 20.1Q63.97 19.51 63.97 18.7Q63.97 17.8 63.64 17.05Q63.59 16.93 63.52 16.82Q63.44 16.66 63.34 16.52Q62.9 15.89 62.12 15.49Q61.17 15 59.68 15L54.2 15Q54.02 15 53.91 15.08Q53.88 15.1 53.86 15.13Q53.84 15.14 53.83 15.16Q53.73 15.28 53.73 15.47L53.73 28.54Q53.73 28.68 53.79 28.78Q53.82 28.83 53.86 28.87Q53.88 28.89 53.9 28.91ZM59.37 20.91L55.7 20.91L55.7 16.62L59.37 16.62Q60.66 16.62 61.32 17.16Q61.49 17.3 61.62 17.47Q61.98 17.96 61.98 18.72Q61.98 19.44 61.64 19.95Q61.51 20.16 61.32 20.33Q60.66 20.91 59.37 20.91ZM88.29 33.03Q89.15 33.39 90.52 33.39Q92.26 33.39 93.29 32.79Q93.94 32.42 94.35 31.86Q94.6 31.54 94.77 31.15Q95.21 30.11 95.21 28.78L95.21 19.07Q95.21 18.97 95.18 18.88Q95.14 18.8 95.07 18.74Q95.01 18.67 94.93 18.63Q94.84 18.59 94.74 18.59L93.81 18.59Q93.7 18.59 93.61 18.64Q93.54 18.67 93.48 18.74Q93.43 18.79 93.4 18.85Q93.35 18.95 93.35 19.07L93.35 19.94Q93.34 19.92 93.33 19.91Q92.84 19.26 92.07 18.83Q91.27 18.39 90.07 18.39Q88.95 18.39 88.15 18.79Q87.58 19.06 87.16 19.49Q86.99 19.66 86.84 19.85Q86.81 19.89 86.79 19.93Q86.32 20.58 86.08 21.4Q85.83 22.26 85.8 23.19Q85.78 23.74 85.8 24.29Q85.83 25.24 86.08 26.09Q86.32 26.9 86.78 27.54Q86.81 27.59 86.84 27.63Q86.96 27.79 87.1 27.93Q87.55 28.39 88.15 28.69Q88.95 29.07 90.07 29.07Q91.25 29.07 92.04 28.66Q92.82 28.25 93.3 27.63L93.3 29Q93.3 30.09 92.96 30.71Q92.79 31.04 92.53 31.27Q92.29 31.47 92 31.59Q91.36 31.86 90.41 31.86Q89.52 31.86 89.01 31.58Q88.52 31.31 88.28 30.94Q88.04 30.58 87.91 30.27Q87.84 30.02 87.71 29.93Q87.6 29.85 87.42 29.85L86.45 29.85Q86.41 29.85 86.36 29.86Q86.23 29.89 86.12 29.99Q86.05 30.06 86.02 30.15Q85.99 30.24 86 30.33Q86.02 30.64 86.23 31.14Q86.44 31.66 86.92 32.16Q87.42 32.68 88.29 33.03ZM99.69 28.46Q100.77 29.2 102.36 29.2Q103.38 29.2 104.19 28.93Q105 28.65 105.54 28.23Q106.1 27.81 106.39 27.38Q106.7 26.95 106.72 26.66Q106.73 26.52 106.67 26.43Q106.64 26.38 106.6 26.35Q106.56 26.31 106.5 26.28Q106.41 26.24 106.3 26.24L105.31 26.24Q105.09 26.24 104.99 26.29Q104.89 26.33 104.71 26.57Q104.62 26.73 104.31 27.01Q104.02 27.28 103.53 27.5Q103.05 27.72 102.34 27.72Q101.74 27.72 101.26 27.48Q101.07 27.4 100.9 27.28Q100.68 27.11 100.49 26.91Q100.17 26.57 99.97 26.13Q99.93 26.03 99.89 25.94Q99.65 25.31 99.62 24.6L99.62 24.41L106.53 24.41Q106.69 24.41 106.8 24.35Q106.83 24.32 106.86 24.3Q106.89 24.27 106.91 24.24Q106.99 24.13 106.99 23.96L106.99 23.61Q106.99 22.04 106.45 20.86Q106.08 20.03 105.46 19.47Q105.19 19.23 104.88 19.03Q103.85 18.39 102.34 18.39Q100.97 18.39 99.96 18.98Q99.62 19.17 99.32 19.43Q98.76 19.92 98.38 20.63Q97.79 21.7 97.72 23.12Q97.7 23.37 97.7 23.79Q97.7 24.2 97.72 24.45Q97.82 26.48 98.87 27.72Q98.96 27.83 99.05 27.93Q99.35 28.23 99.69 28.46ZM68.54 28.62Q69.44 29.2 70.72 29.2Q71.98 29.2 72.74 28.78Q73.1 28.58 73.41 28.33Q73.76 28.03 74.06 27.66L74.06 28.54Q74.06 28.67 74.11 28.77Q74.14 28.82 74.18 28.87Q74.23 28.91 74.28 28.94Q74.38 29 74.52 29L75.45 29Q75.59 29 75.7 28.93Q75.74 28.91 75.77 28.87Q75.81 28.83 75.84 28.78Q75.9 28.68 75.9 28.54L75.9 19.05Q75.9 18.91 75.83 18.8Q75.81 18.76 75.77 18.73Q75.73 18.68 75.68 18.65Q75.59 18.59 75.45 18.59L74.46 18.59Q74.33 18.59 74.23 18.65Q74.17 18.68 74.12 18.73Q74.08 18.77 74.05 18.83Q73.99 18.92 73.99 19.05L73.99 24.6Q73.99 25.87 73.37 26.64Q73.31 26.72 73.24 26.79Q73.02 27.02 72.77 27.18Q72.13 27.57 71.25 27.57Q70.13 27.57 69.49 27.02Q68.66 26.29 68.66 24.6L68.66 19.05Q68.66 18.92 68.6 18.83Q68.57 18.77 68.52 18.73Q68.48 18.68 68.42 18.65Q68.33 18.59 68.2 18.59L67.2 18.59Q67.07 18.59 66.97 18.65Q66.91 18.68 66.86 18.73Q66.82 18.77 66.8 18.81Q66.74 18.92 66.74 19.05L66.74 24.69Q66.74 26.02 67.2 27.04Q67.5 27.71 68 28.19Q68.25 28.43 68.54 28.62ZM79.1 28.94Q79.2 29 79.33 29L80.31 29Q80.44 29 80.54 28.94Q80.6 28.91 80.65 28.87Q80.72 28.81 80.75 28.74Q80.79 28.65 80.79 28.54L80.79 22.66Q80.79 21.75 81.22 21.17Q81.31 21.05 81.41 20.94Q81.53 20.83 81.66 20.73Q82.23 20.31 83.11 20.31L84.31 20.31Q84.47 20.31 84.58 20.24Q84.61 20.22 84.64 20.2Q84.69 20.16 84.71 20.11Q84.77 20.01 84.77 19.87L84.77 19.05Q84.77 18.92 84.72 18.83Q84.69 18.77 84.64 18.73Q84.6 18.68 84.54 18.65Q84.44 18.59 84.31 18.59L83.53 18.59Q82.54 18.59 81.83 18.94Q81.53 19.08 81.28 19.3Q80.96 19.57 80.73 19.96L80.73 19.07Q80.73 18.97 80.7 18.88Q80.66 18.8 80.59 18.74Q80.53 18.67 80.45 18.63Q80.36 18.59 80.26 18.59L79.33 18.59Q79.22 18.59 79.13 18.64Q79.06 18.67 79 18.74Q78.95 18.79 78.93 18.85Q78.87 18.95 78.87 19.07L78.87 28.54Q78.87 28.67 78.93 28.77Q78.96 28.82 79 28.87Q79.05 28.91 79.1 28.94ZM109.62 28.94Q109.72 29 109.85 29L110.84 29Q110.96 29 111.06 28.94Q111.12 28.91 111.17 28.87Q111.24 28.81 111.27 28.74Q111.31 28.65 111.31 28.54L111.31 22.66Q111.31 21.75 111.74 21.17Q111.83 21.05 111.93 20.94Q112.05 20.83 112.18 20.73Q112.75 20.31 113.63 20.31L114.83 20.31Q114.99 20.31 115.1 20.24Q115.13 20.22 115.16 20.2Q115.21 20.16 115.23 20.11Q115.29 20.01 115.29 19.87L115.29 19.05Q115.29 18.92 115.24 18.83Q115.21 18.77 115.16 18.73Q115.12 18.68 115.06 18.65Q114.96 18.59 114.83 18.59L114.05 18.59Q113.06 18.59 112.35 18.94Q112.05 19.08 111.8 19.3Q111.48 19.57 111.26 19.96L111.26 19.07Q111.26 18.97 111.22 18.88Q111.18 18.8 111.11 18.74Q111.05 18.67 110.97 18.63Q110.88 18.59 110.78 18.59L109.85 18.59Q109.74 18.59 109.65 18.64Q109.58 18.67 109.52 18.74Q109.48 18.79 109.45 18.85Q109.39 18.95 109.39 19.07L109.39 28.54Q109.39 28.67 109.45 28.77Q109.48 28.82 109.52 28.87Q109.57 28.91 109.62 28.94ZM105.09 23.03L99.62 23.03L99.62 22.97Q99.62 22.08 99.93 21.38Q100.15 20.91 100.49 20.57Q100.66 20.4 100.87 20.26Q100.91 20.24 100.95 20.21Q101.54 19.85 102.34 19.85Q103.12 19.85 103.7 20.2Q103.76 20.23 103.82 20.26Q104.04 20.41 104.22 20.6Q104.55 20.93 104.76 21.38Q105.09 22.08 105.09 22.97L105.09 23.03ZM92.08 27.02Q91.47 27.48 90.47 27.48Q89.48 27.48 88.88 27.03Q88.63 26.84 88.44 26.6Q88.17 26.27 88.01 25.85Q87.75 25.11 87.71 24.27Q87.69 23.74 87.71 23.21Q87.75 22.37 88.01 21.65Q88.17 21.2 88.46 20.86Q88.64 20.64 88.88 20.46Q89.48 20.02 90.47 20.02Q91.47 20.02 92.08 20.47Q92.4 20.71 92.63 21.02Q92.84 21.3 92.98 21.64Q93.24 22.25 93.29 22.89Q93.29 22.97 93.3 23.05Q93.32 23.34 93.32 23.75Q93.32 24.16 93.3 24.43Q93.29 24.55 93.28 24.67Q93.23 25.27 92.98 25.86Q92.85 26.17 92.66 26.43Q92.42 26.76 92.08 27.02ZM59.57 27.37L55.7 27.37L55.7 22.52L59.57 22.52Q60.75 22.52 61.43 23.09Q61.49 23.15 61.56 23.21Q61.81 23.46 61.98 23.77Q62.25 24.29 62.25 24.96Q62.25 25.52 62.04 25.99Q61.87 26.37 61.56 26.68Q61.49 26.74 61.42 26.8Q60.74 27.37 59.57 27.37Z" fill="#FFFFFF" fill-opacity="1.000000" fill-rule="evenodd"/>
	<rect id="burger 1" rx="0.000000" width="43.000000" height="43.000000" transform="translate(0.500000 0.500000)" fill="#FFFFFF" fill-opacity="0"/>
	<g clip-path="url(#clip0_161)" >
		<path id="Vector" d="M44 20.33C44 18.64 42.91 17.2 41.39 16.68C41.16 11.44 39.2 7.41 35.57 4.71C32.25 2.25 27.68 1 22 1C16.31 1 11.74 2.25 8.42 4.71C4.79 7.41 2.83 11.44 2.6 16.68C1.08 17.2 0 18.64 0 20.33C0 21.32 0.37 22.22 0.98 22.91C0.37 23.59 0 24.5 0 25.49C0 27.19 1.1 28.63 2.62 29.15C3.18 35.04 8.18 39.67 14.26 39.67L29.73 39.67C35.81 39.67 40.81 35.04 41.37 29.15C42.89 28.63 44 27.19 44 25.49C44 24.5 43.62 23.59 43.01 22.91C43.62 22.22 44 21.32 44 20.33ZM22 3.57C29.39 3.57 38.15 5.85 38.8 16.46L5.19 16.46C5.84 5.85 14.6 3.57 22 3.57ZM3.86 19.04L40.13 19.04C40.84 19.04 41.42 19.62 41.42 20.33C41.42 21.04 40.84 21.62 40.13 21.62L3.86 21.62C3.15 21.62 2.57 21.04 2.57 20.33C2.57 19.62 3.15 19.04 3.86 19.04ZM29.73 37.09L14.26 37.09C9.68 37.09 5.88 33.72 5.24 29.35L6.44 29.35C7.3 29.35 7.57 29.65 8.12 30.23C8.78 30.95 9.7 31.93 11.68 31.93C13.68 31.93 14.57 30.94 15.22 30.21C15.73 29.64 15.99 29.35 16.84 29.35C17.69 29.35 17.94 29.64 18.46 30.21C19.11 30.94 20 31.93 22 31.93C23.99 31.93 24.88 30.94 25.53 30.21C26.05 29.64 26.3 29.35 27.15 29.35C28 29.35 28.26 29.64 28.77 30.21C29.42 30.94 30.31 31.93 32.31 31.93C34.31 31.93 35.2 30.94 35.85 30.21C36.36 29.64 36.62 29.35 37.46 29.35L38.75 29.35C38.11 33.72 34.31 37.09 29.73 37.09ZM40.13 26.78L37.46 26.78C35.46 26.78 34.57 27.77 33.93 28.49C33.41 29.07 33.16 29.35 32.31 29.35C31.46 29.35 31.2 29.07 30.69 28.49C30.04 27.77 29.15 26.78 27.15 26.78C25.15 26.78 24.26 27.77 23.61 28.49C23.1 29.07 22.84 29.35 22 29.35C21.15 29.35 20.89 29.07 20.38 28.49C19.73 27.77 18.84 26.78 16.84 26.78C14.84 26.78 13.95 27.77 13.3 28.49C12.79 29.07 12.53 29.35 11.68 29.35C10.82 29.35 10.55 29.06 10.01 28.48C9.34 27.76 8.43 26.78 6.44 26.78L3.86 26.78C3.15 26.78 2.57 26.2 2.57 25.49C2.57 24.78 3.15 24.2 3.86 24.2L40.13 24.2C40.84 24.2 41.42 24.78 41.42 25.49C41.42 26.2 40.84 26.78 40.13 26.78Z" fill="#FFFFFF" fill-opacity="1.000000" fill-rule="nonzero"/>
		<path id="Vector" d="M15.55 12.6C15.55 13.31 14.97 13.89 14.26 13.89C13.55 13.89 12.97 13.31 12.97 12.6C12.97 11.88 13.55 11.31 14.26 11.31C14.97 11.31 15.55 11.88 15.55 12.6Z" fill="#FFFFFF" fill-opacity="1.000000" fill-rule="evenodd"/>
		<path id="Vector" d="M31.02 12.6C31.02 13.31 30.44 13.89 29.73 13.89C29.02 13.89 28.44 13.31 28.44 12.6C28.44 11.88 29.02 11.31 29.73 11.31C30.44 11.31 31.02 11.88 31.02 12.6Z" fill="#FFFFFF" fill-opacity="1.000000" fill-rule="evenodd"/>
		<path id="Vector" d="M25.86 10.02C25.86 10.73 25.29 11.31 24.57 11.31C23.86 11.31 23.28 10.73 23.28 10.02C23.28 9.31 23.86 8.73 24.57 8.73C25.29 8.73 25.86 9.31 25.86 10.02Z" fill="#FFFFFF" fill-opacity="1.000000" fill-rule="evenodd"/>
		<path id="Vector" d="M20.71 7.44C20.71 8.15 20.13 8.73 19.42 8.73C18.7 8.73 18.13 8.15 18.13 7.44C18.13 6.73 18.7 6.15 19.42 6.15C20.13 6.15 20.71 6.73 20.71 7.44Z" fill="#FFFFFF" fill-opacity="1.000000" fill-rule="evenodd"/>
    </g>

</svg>

